<?xml version="1.0" encoding="UTF-8"?>
<!DOCTYPE svg PUBLIC "-//W3C//DTD SVG 1.1//EN" "http://www.w3.org/Graphics/SVG/1.1/DTD/svg11.dtd">
<svg xmlns="http://www.w3.org/2000/svg" version="1.1" width="48px" height="24px" style="shape-rendering:geometricPrecision; text-rendering:geometricPrecision; image-rendering:optimizeQuality; fill-rule:evenodd; clip-rule:evenodd" xmlns:xlink="http://www.w3.org/1999/xlink">
<g><path style="opacity:1" fill="#d80012" d="M -0.5,-0.5 C 15.5,-0.5 31.5,-0.5 47.5,-0.5C 47.5,2.16667 47.5,4.83333 47.5,7.5C 31.5,7.5 15.5,7.5 -0.5,7.5C -0.5,4.83333 -0.5,2.16667 -0.5,-0.5 Z"/></g>
<g><path style="opacity:1" fill="#0b349d" d="M -0.5,7.5 C 15.5,7.5 31.5,7.5 47.5,7.5C 47.5,10.1667 47.5,12.8333 47.5,15.5C 31.5,15.5 15.5,15.5 -0.5,15.5C -0.5,12.8333 -0.5,10.1667 -0.5,7.5 Z"/></g>
<g><path style="opacity:1" fill="#f2a800" d="M -0.5,15.5 C 15.5,15.5 31.5,15.5 47.5,15.5C 47.5,18.1667 47.5,20.8333 47.5,23.5C 31.5,23.5 15.5,23.5 -0.5,23.5C -0.5,20.8333 -0.5,18.1667 -0.5,15.5 Z"/></g>
</svg>
