<svg width="5" height="8" viewBox="0 0 5 8" fill="none" xmlns="http://www.w3.org/2000/svg">
    <path d="M5.00001 2V5.5C5.00001 5.77641 4.77611 6 4.50001 6C4.22392 6 4.00001 5.77641 4.00001 5.5V3.20781L0.853138 6.35469C0.755951 6.45156 0.627982 6.5 0.500013 6.5C0.372045 6.5 0.244076 6.45117 0.146576 6.35352C-0.0487366 6.1582 -0.0487366 5.8418 0.146576 5.64648L3.29376 2.5H1.00001C0.72392 2.5 0.500013 2.27656 0.500013 2C0.500013 1.72344 0.72392 1.5 1.00001 1.5H4.50001C4.77658 1.5 5.00001 1.72344 5.00001 2Z" fill="#1A1A1A"/>
    </svg>
    