<svg width="8" height="8" viewBox="0 0 8 8" fill="none" xmlns="http://www.w3.org/2000/svg">
<path d="M7.49988 1V6.25C7.49988 6.66461 7.16402 7 6.74988 7C6.33574 7 5.99988 6.66461 5.99988 6.25V2.81172L1.27957 7.53203C1.13379 7.67734 0.941836 7.75 0.749883 7.75C0.55793 7.75 0.365977 7.67676 0.219727 7.53027C-0.0732422 7.2373 -0.0732422 6.7627 0.219727 6.46973L4.94051 1.75H1.49988C1.08574 1.75 0.749883 1.41484 0.749883 1C0.749883 0.585156 1.08574 0.25 1.49988 0.25H6.74988C7.16473 0.25 7.49988 0.585156 7.49988 1Z" fill="#1565C0"/>
</svg>
