<svg width="14" height="14" viewBox="0 0 14 14" fill="none" xmlns="http://www.w3.org/2000/svg">
    <path d="M9.93398 2.75358L13.8715 6.69108C13.9562 6.77585 14 6.88796 14 6.97546C14 7.06296 13.9573 7.19935 13.8718 7.28472L9.93431 11.2222C9.76341 11.3931 9.48642 11.3931 9.3158 11.2222C9.14517 11.0513 9.1449 10.7743 9.3158 10.6037L12.5068 7.41269H0.4375C0.195672 7.41269 0 7.21701 0 6.9998C0 6.75797 0.195672 6.5623 0.4375 6.5623H12.507L9.31602 3.37128C9.14512 3.20038 9.14512 2.92339 9.31602 2.75276C9.48691 2.58214 9.76445 2.58241 9.93398 2.75358Z" fill="#999999"/>
    </svg>
    