<svg width="18" height="16" viewBox="0 0 18 16" fill="none" xmlns="http://www.w3.org/2000/svg">
    <path d="M5.36562 5.97187H12.6344L10.0844 1.09593C9.89375 0.728428 10.0375 0.275647 10.4031 0.0845531C10.7719 -0.106541 11.225 0.0364593 11.4156 0.404053L14.325 5.97187H17C17.5531 5.97187 18 6.44687 18 6.97187C18 7.55312 17.5531 7.97187 17 7.97187L15.3781 14.4844C15.1281 15.375 14.3562 16 13.4375 16H4.53438C3.64375 16 2.84375 15.375 2.62125 14.4844L1 7.97187C0.447812 7.97187 0 7.55312 0 6.97187C0 6.44687 0.447812 5.97187 1 5.97187H3.675L6.58437 0.404053C6.775 0.0364593 7.22813 -0.106541 7.59688 0.0845531C7.9625 0.275647 8.10625 0.728428 7.91563 1.09593L5.36562 5.97187ZM5.97188 9.47187C5.97188 9.22187 5.775 8.97187 5.47188 8.97187C5.225 8.97187 4.97188 9.22187 4.97188 9.47187V12.4719C4.97188 12.775 5.225 12.9719 5.47188 12.9719C5.775 12.9719 5.97188 12.775 5.97188 12.4719V9.47187ZM8.47188 9.47187V12.4719C8.47188 12.775 8.725 12.9719 8.97188 12.9719C9.275 12.9719 9.5 12.775 9.5 12.4719V9.47187C9.5 9.22187 9.275 8.97187 8.97188 8.97187C8.725 8.97187 8.47188 9.22187 8.47188 9.47187ZM13 9.47187C13 9.22187 12.775 8.97187 12.5 8.97187C12.225 8.97187 12 9.22187 12 9.47187V12.4719C12 12.775 12.225 12.9719 12.5 12.9719C12.775 12.9719 13 12.775 13 12.4719V9.47187Z" fill="black"/>
    </svg>
    