<?xml version="1.0" encoding="UTF-8"?>
<!DOCTYPE svg PUBLIC "-//W3C//DTD SVG 1.1//EN" "http://www.w3.org/Graphics/SVG/1.1/DTD/svg11.dtd">
<svg xmlns="http://www.w3.org/2000/svg" version="1.1" width="48px" height="24px" style="shape-rendering:geometricPrecision; text-rendering:geometricPrecision; image-rendering:optimizeQuality; fill-rule:evenodd; clip-rule:evenodd" xmlns:xlink="http://www.w3.org/1999/xlink">
<g><path style="opacity:1" fill="#c8303e" d="M 5.5,-0.5 C 19.5,-0.5 33.5,-0.5 47.5,-0.5C 47.5,4.5 47.5,9.5 47.5,14.5C 32.785,14.8004 18.1183,14.4671 3.5,13.5C 5.93121,12.2591 5.93121,11.0924 3.5,10C 4.30806,9.69238 4.97473,9.19238 5.5,8.5C 4.49911,5.67111 4.49911,2.67111 5.5,-0.5 Z"/></g>
<g><path style="opacity:1" fill="#e39298" d="M -0.5,-0.5 C 1.5,-0.5 3.5,-0.5 5.5,-0.5C 4.49911,2.67111 4.49911,5.67111 5.5,8.5C 4.97473,9.19238 4.30806,9.69238 3.5,10C 5.93121,11.0924 5.93121,12.2591 3.5,13.5C 2.16667,14.1667 0.833333,14.8333 -0.5,15.5C -0.5,10.1667 -0.5,4.83333 -0.5,-0.5 Z"/></g>
<g><path style="opacity:1" fill="#bc494a" d="M 3.5,13.5 C 18.1183,14.4671 32.785,14.8004 47.5,14.5C 47.5,14.8333 47.5,15.1667 47.5,15.5C 33.496,15.3334 19.496,15.5001 5.5,16C 4.94404,16.3826 4.61071,16.8826 4.5,17.5C 2.76484,16.943 1.09817,16.6097 -0.5,16.5C -0.5,16.1667 -0.5,15.8333 -0.5,15.5C 0.833333,14.8333 2.16667,14.1667 3.5,13.5 Z"/></g>
<g><path style="opacity:1" fill="#4ca657" d="M 47.5,15.5 C 47.5,18.1667 47.5,20.8333 47.5,23.5C 33.1667,23.5 18.8333,23.5 4.5,23.5C 4.5,21.5 4.5,19.5 4.5,17.5C 4.61071,16.8826 4.94404,16.3826 5.5,16C 19.496,15.5001 33.496,15.3334 47.5,15.5 Z"/></g>
<g><path style="opacity:1" fill="#e89ca3" d="M -0.5,16.5 C 1.09817,16.6097 2.76484,16.943 4.5,17.5C 4.5,19.5 4.5,21.5 4.5,23.5C 2.83333,23.5 1.16667,23.5 -0.5,23.5C -0.5,21.1667 -0.5,18.8333 -0.5,16.5 Z"/></g>
</svg>
