<svg width="15" height="17" viewBox="0 0 15 17" fill="none" xmlns="http://www.w3.org/2000/svg">
    <g clip-path="url(#clip0_1020_104915)">
        <path
            d="M5.25 2.28564H9.75V1.03564C9.75 0.621582 10.0844 0.285645 10.5 0.285645C10.9156 0.285645 11.25 0.621582 11.25 1.03564V2.28564H12.5C13.6031 2.28564 14.5 3.18096 14.5 4.28564V14.2856C14.5 15.3888 13.6031 16.2856 12.5 16.2856H2.5C1.39531 16.2856 0.5 15.3888 0.5 14.2856V4.28564C0.5 3.18096 1.39531 2.28564 2.5 2.28564H3.75V1.03564C3.75 0.621582 4.08437 0.285645 4.5 0.285645C4.91563 0.285645 5.25 0.621582 5.25 1.03564V2.28564ZM2 14.2856C2 14.5606 2.22375 14.7856 2.5 14.7856H12.5C12.775 14.7856 13 14.5606 13 14.2856V6.28564H2V14.2856Z"
            fill="#999999"
        />
    </g>
    <defs>
        <clipPath id="clip0_1020_104915">
            <rect width="14" height="16" fill="white" transform="translate(0.5 0.285645)" />
        </clipPath>
    </defs>
</svg>