<svg width="7" height="12" viewBox="0 0 7 12" fill="none" xmlns="http://www.w3.org/2000/svg">
<path d="M1.65522 1.11112L5.94663 5.59003C6.05137 5.69843 6.10338 5.83894 6.10338 5.97886C6.10338 6.11878 6.05137 6.2594 5.94663 6.36769L1.65522 10.8466C1.44072 11.0715 1.08476 11.0788 0.860694 10.8634C0.635108 10.6496 0.627772 10.292 0.843849 10.0687L4.78135 5.95773L0.844522 1.88901C0.628451 1.66636 0.635787 1.30823 0.861366 1.09425C1.08546 0.878857 1.44194 0.886357 1.65522 1.11112Z" fill="#666666"/>
<path d="M1.65522 1.11112L5.94663 5.59003C6.05137 5.69843 6.10338 5.83894 6.10338 5.97886C6.10338 6.11878 6.05137 6.2594 5.94663 6.36769L1.65522 10.8466C1.44072 11.0715 1.08476 11.0788 0.860694 10.8634C0.635108 10.6496 0.627772 10.292 0.843849 10.0687L4.78135 5.95773L0.844522 1.88901C0.628451 1.66636 0.635787 1.30823 0.861366 1.09425C1.08546 0.878857 1.44194 0.886357 1.65522 1.11112Z" fill="black" fill-opacity="0.2"/>
</svg>
