<svg width="13" height="14" viewBox="0 0 13 14" fill="none" xmlns="http://www.w3.org/2000/svg">
<g clip-path="url(#clip0_1704_142709)">
<path d="M12.0035 1.00317C12.173 0.832275 12.452 0.832275 12.6215 1.00317C12.7937 1.1738 12.7937 1.45079 12.6215 1.62169L7.24297 6.99993L12.6215 12.3784C12.7937 12.548 12.7937 12.8269 12.6215 12.9964C12.452 13.1687 12.173 13.1687 12.0035 12.9964L6.625 7.6179L1.24676 12.9964C1.07613 13.1687 0.799141 13.1687 0.628133 12.9964C0.457289 12.8269 0.457289 12.548 0.628133 12.3784L6.00703 6.99993L0.628133 1.62169C0.457289 1.45106 0.457289 1.17407 0.628133 1.00317C0.798867 0.832275 1.07586 0.832275 1.24676 1.00317L6.625 6.38196L12.0035 1.00317Z" fill="#1A1A1A"/>
</g>
<defs>
<clipPath id="clip0_1704_142709">
<rect width="12.25" height="14" fill="white" transform="translate(0.5)"/>
</clipPath>
</defs>
</svg>
