<svg width="15" height="14" viewBox="0 0 15 14" fill="none" xmlns="http://www.w3.org/2000/svg">
<path d="M14.5 2.1875C14.5 2.67996 14.109 3.13359 13.45 3.5C12.6543 3.94023 11.4703 4.25195 10.1059 4.34492C10.0074 4.29844 9.90352 4.25195 9.79961 4.2082C8.71953 3.75703 7.28672 3.5 5.75 3.5C5.52305 3.5 5.30156 3.50547 5.08008 3.51641L5.05 3.5C4.39102 3.13359 4 2.67996 4 2.1875C4 0.979453 6.32695 0 9.25 0C12.1484 0 14.5 0.979453 14.5 2.1875ZM4.89414 4.40508C5.17305 4.38594 5.45742 4.375 5.75 4.375C7.45078 4.375 8.96016 4.71133 9.91992 5.23359C10.598 5.60273 11 6.06211 11 6.5625C11 6.64727 10.9809 6.77852 10.9426 6.88242C10.8168 7.24336 10.4559 7.57422 9.98555 7.85586C9.98281 7.85586 9.97734 7.85859 9.97461 7.86133C9.96641 7.8668 9.9582 7.86953 9.95 7.875C8.99297 8.40547 7.46719 8.75 5.75 8.75C4.12031 8.75 2.6618 8.44102 1.69875 7.9543C1.64762 7.92695 1.59785 7.87773 1.54973 7.875C0.890469 7.50859 0.5 7.05469 0.5 6.5625C0.5 5.61094 1.96098 4.79883 4 4.50078C4.28711 4.45703 4.58516 4.42422 4.89414 4.40508ZM11.216 5.10234C11.9898 4.98203 12.698 4.79063 13.2996 4.5418C13.7453 4.35586 14.1582 4.12617 14.5 3.84453V4.8125C14.5 5.34023 14.0488 5.82695 13.3023 6.2043C12.9004 6.40664 12.4164 6.57617 11.8695 6.70742C11.8723 6.66094 11.875 6.61172 11.875 6.5625C11.875 5.96367 11.5852 5.47148 11.216 5.10234ZM11 9.1875C11 9.67969 10.609 10.1336 9.95 10.5C9.90078 10.5027 9.85156 10.552 9.80234 10.5793C8.83711 11.066 7.37969 11.375 5.75 11.375C4.03281 11.375 2.50758 11.0305 1.54973 10.5C0.890469 10.1336 0.500008 9.67969 0.500008 9.1875V8.21953C0.84043 8.50117 1.25523 8.73086 1.70121 8.9168C2.78156 9.36797 4.21328 9.625 5.75 9.625C7.28672 9.625 8.71953 9.36797 9.79961 8.9168C10.0129 8.8293 10.218 8.72813 10.4121 8.61875C10.5789 8.52578 10.7348 8.42188 10.8824 8.3125C10.9234 8.28242 10.9617 8.24961 11 8.21953V9.1875ZM11.875 7.6043C12.3699 7.46758 12.873 7.34453 13.2996 7.1668C13.7453 6.98086 14.1582 6.75117 14.5 6.46953V7.4375C14.5 7.72461 14.3633 8.01172 14.0926 8.28242C13.6469 8.72812 12.8621 9.09453 11.8695 9.33242C11.8723 9.28594 11.875 9.23672 11.875 9.1875V7.6043ZM5.75 12.25C7.28672 12.25 8.71953 11.993 9.79961 11.5418C10.2453 11.3559 10.6582 11.1262 11 10.8445V11.8125C11 13.0211 8.64844 14 5.75 14C2.85047 14 0.500008 13.0211 0.500008 11.8125V10.8445C0.84043 11.1262 1.25523 11.3559 1.70121 11.5418C2.78156 11.993 4.21328 12.25 5.75 12.25Z" fill="#999999"/>
</svg>
