<svg width="16" height="12" viewBox="0 0 16 12" fill="none" xmlns="http://www.w3.org/2000/svg">
<path d="M14 0.75C14.9652 0.75 15.75 1.5334 15.75 2.5V9.5C15.75 10.4652 14.9652 11.25 14 11.25H1.75C0.783399 11.25 0 10.4652 0 9.5V2.5C0 1.5334 0.783399 0.75 1.75 0.75H14ZM7.4375 4.25C7.19688 4.25 7 4.44688 7 4.6875C7 4.92812 7.19688 5.125 7.4375 5.125H13.5625C13.8031 5.125 14 4.92812 14 4.6875C14 4.44688 13.8031 4.25 13.5625 4.25H7.4375ZM7.4375 7.75H13.5625C13.8031 7.75 14 7.55312 14 7.3125C14 7.07188 13.8031 6.875 13.5625 6.875H7.4375C7.19688 6.875 7 7.07188 7 7.3125C7 7.55312 7.19688 7.75 7.4375 7.75ZM4.48711 3.375C4.48711 3.07148 4.24102 2.82539 3.91289 2.82539C3.63398 2.82539 3.38789 3.07148 3.38789 3.375V3.53906C3.23477 3.57188 3.06523 3.61836 2.95312 3.67852C2.54461 3.86445 2.18941 4.20898 2.10301 4.70938C2.05461 4.98828 2.08031 5.25898 2.19625 5.50234C2.30973 5.74297 2.48828 5.9125 2.66957 6.03555C2.98594 6.25156 3.4043 6.37734 3.72422 6.47305L3.78437 6.48945C4.16719 6.60703 4.42422 6.6918 4.58555 6.80938C4.65391 6.85859 4.67852 6.89688 4.68672 6.92148C4.69766 6.94336 4.71406 6.99258 4.69492 7.10195C4.67852 7.19766 4.62656 7.27969 4.47617 7.34258C4.30937 7.41367 4.03867 7.44922 3.68867 7.39453C3.52461 7.36719 3.23203 7.26875 2.97227 7.18125C2.91211 7.15938 2.85195 7.14023 2.79727 7.12109C2.51125 7.02539 2.20145 7.18125 2.10602 7.46836C2.01059 7.75547 2.16563 8.06445 2.45219 8.13555C2.48527 8.17109 2.52629 8.18477 2.57332 8.20117C2.76445 8.275 3.12812 8.38984 3.38789 8.45V8.625C3.38789 8.92852 3.63398 9.17461 3.91289 9.17461C4.24102 9.17461 4.48711 8.92852 4.48711 8.625V8.47461C4.63203 8.44727 4.77422 8.38164 4.90547 8.34883C5.3375 8.16562 5.68203 7.81016 5.77227 7.29063C5.82148 7.00625 5.79961 6.73281 5.69023 6.48398C5.58359 6.23789 5.41133 6.05742 5.22813 5.92617C4.89727 5.68281 4.4543 5.55156 4.12344 5.45039L4.07695 5.44492C3.71328 5.32734 3.45078 5.24531 3.28398 5.13047C3.21289 5.08125 3.19102 5.04844 3.18555 5.03477C3.18008 5.02383 3.16367 4.99102 3.18008 4.89805C3.19102 4.84336 3.23203 4.75313 3.4043 4.67656C3.55742 4.59727 3.85273 4.55352 4.18633 4.58086C4.30664 4.62461 4.67578 4.6957 4.78242 4.72305C5.07227 4.80234 5.37305 4.62734 5.44961 4.33477C5.52891 4.04492 5.35391 3.74414 5.06133 3.66758C4.94102 3.63477 4.66758 3.58008 4.48711 3.54727V3.375Z" fill="#999999"/>
</svg>
