<svg xmlns="http://www.w3.org/2000/svg" width="4" height="14" viewBox="0 0 4 14" fill="none">
    <g clip-path="url(#clip0_2972_231306)">
        <path
            d="M2.25 10.0625C2.97488 10.0625 3.5625 10.6504 3.5625 11.375C3.5625 12.0996 2.97488 12.6875 2.25 12.6875C1.52512 12.6875 0.9375 12.0996 0.9375 11.375C0.9375 10.6504 1.52512 10.0625 2.25 10.0625ZM2.25 5.6875C2.97488 5.6875 3.5625 6.27539 3.5625 7C3.5625 7.72461 2.97488 8.3125 2.25 8.3125C1.52512 8.3125 0.9375 7.72461 0.9375 7C0.9375 6.27539 1.52512 5.6875 2.25 5.6875ZM2.25 3.9375C1.52512 3.9375 0.9375 3.34961 0.9375 2.625C0.9375 1.90012 1.52512 1.3125 2.25 1.3125C2.97488 1.3125 3.5625 1.90012 3.5625 2.625C3.5625 3.34961 2.97488 3.9375 2.25 3.9375Z"
            fill="black" />
    </g>
    <defs>
        <clipPath id="clip0_2972_231306">
            <rect width="3.5" height="14" fill="white" transform="translate(0.5)" />
        </clipPath>
    </defs>
</svg>