<svg width="12" height="12" viewBox="0 0 12 12" fill="none" xmlns="http://www.w3.org/2000/svg">
    <path d="M11.6228 3.90469C11.7001 4.10625 11.6345 4.33359 11.4752 4.48125L10.4603 5.40469C10.4861 5.59922 10.5001 5.79844 10.5001 6C10.5001 6.20156 10.4861 6.40078 10.4603 6.59531L11.4752 7.51875C11.6345 7.66641 11.7001 7.89375 11.6228 8.09531C11.5197 8.37422 11.3955 8.64375 11.2548 8.89922L11.1447 9.08906C10.99 9.34687 10.8166 9.59062 10.6267 9.82266C10.4861 9.98906 10.2587 10.0477 10.0525 9.98203L8.74703 9.56484C8.43296 9.80625 8.06499 10.0078 7.71578 10.1625L7.42281 11.5008C7.37593 11.7117 7.21187 11.8617 6.99624 11.918C6.67281 11.9719 6.33999 12 5.97906 12C5.66031 12 5.32749 11.9719 5.00406 11.918C4.78843 11.8617 4.62437 11.7117 4.57749 11.5008L4.28453 10.1625C3.91421 10.0078 3.56734 9.80625 3.25328 9.56484L1.94874 9.98203C1.74156 10.0477 1.51304 9.98906 1.37429 9.82266C1.18421 9.59062 1.01078 9.34687 0.856088 9.08906L0.7464 8.89922C0.604135 8.64375 0.480385 8.37422 0.376557 8.09531C0.300619 7.89375 0.364603 7.66641 0.525385 7.51875L1.53929 6.59531C1.51351 6.40078 1.50015 6.20156 1.50015 6C1.50015 5.79844 1.51351 5.59922 1.53929 5.40469L0.525385 4.48125C0.364603 4.33359 0.300619 4.10859 0.376557 3.90469C0.480385 3.62578 0.604369 3.35625 0.7464 3.10078L0.855853 2.91094C1.01078 2.65312 1.18421 2.40937 1.37429 2.17852C1.51304 2.01094 1.74156 1.95281 1.94874 2.01891L3.25328 2.43516C3.56734 2.19281 3.91421 1.99125 4.28453 1.8382L4.57749 0.499922C4.62437 0.287109 4.78843 0.118125 5.00406 0.0822656C5.32749 0.0281484 5.66031 0 6.00015 0C6.33999 0 6.67281 0.0281484 6.99624 0.0822656C7.21187 0.118125 7.37593 0.287109 7.42281 0.499922L7.71578 1.8382C8.06499 1.99125 8.43296 2.19281 8.74703 2.43516L10.0525 2.01891C10.2587 1.95281 10.4861 2.01094 10.6267 2.17852C10.8166 2.40937 10.99 2.65312 11.1447 2.91094L11.2548 3.10078C11.3955 3.35625 11.5197 3.62578 11.6228 3.90469ZM6.00015 7.875C7.03609 7.875 7.87515 7.03594 7.87515 5.97891C7.87515 4.96406 7.03609 4.10391 6.00015 4.10391C4.96421 4.10391 4.12515 4.96406 4.12515 5.97891C4.12515 7.03594 4.96421 7.875 6.00015 7.875Z" fill="#1A1A1A"/>
    </svg>
    