<svg width="6" height="12" viewBox="0 0 6 12" fill="none" xmlns="http://www.w3.org/2000/svg">
    <path d="M0 1C0 0.447812 0.447812 0 1 0C1.55219 0 2 0.447812 2 1C2 1.55313 1.55219 2 1 2C0.447812 2 0 1.55313 0 1ZM0 6C0 5.44688 0.447812 5 1 5C1.55219 5 2 5.44688 2 6C2 6.55312 1.55219 7 1 7C0.447812 7 0 6.55312 0 6ZM2 11C2 11.5531 1.55219 12 1 12C0.447812 12 0 11.5531 0 11C0 10.4469 0.447812 10 1 10C1.55219 10 2 10.4469 2 11ZM4 1C4 0.447812 4.44688 0 5 0C5.55312 0 6 0.447812 6 1C6 1.55313 5.55312 2 5 2C4.44688 2 4 1.55313 4 1ZM6 6C6 6.55312 5.55312 7 5 7C4.44688 7 4 6.55312 4 6C4 5.44688 4.44688 5 5 5C5.55312 5 6 5.44688 6 6ZM4 11C4 10.4469 4.44688 10 5 10C5.55312 10 6 10.4469 6 11C6 11.5531 5.55312 12 5 12C4.44688 12 4 11.5531 4 11Z" fill="black"/>
    </svg>
    