  <svg width="14" height="12" viewBox="0 0 14 12" fill="none" xmlns="http://www.w3.org/2000/svg">
    <g clip-path="url(#clip0_1060_108235)">
      <path
        d="M12.5 1.5C13.3273 1.5 14 2.17148 14 3V9C14 9.82734 13.3273 10.5 12.5 10.5H2C1.17148 10.5 0.5 9.82734 0.5 9V3C0.5 2.17148 1.17148 1.5 2 1.5H12.5ZM7.25 8.25C8.49219 8.25 9.5 7.24219 9.5 6C9.5 4.73672 8.49219 3.75 7.25 3.75C5.98672 3.75 5 4.73672 5 6C5 7.24219 5.98672 8.25 7.25 8.25Z"
        fill="#999999"
      />
    </g>
    <defs>
      <clipPath id="clip0_1060_108235">
        <rect width="13.5" height="12" fill="white" transform="translate(0.5)" />
      </clipPath>
    </defs>
  </svg>