<svg xmlns="http://www.w3.org/2000/svg" width="18" height="20" viewBox="0 0 18 20" fill="none">
    <path
        d="M14.8707 2.62963C13.734 1.4933 11.8902 1.4933 10.7535 2.62963L3.25388 10.1292C1.42693 11.9574 1.42693 14.9183 3.25388 16.7464C5.08162 18.5746 8.04255 18.5746 9.87068 16.7464L15.8082 10.8089C16.0504 10.5628 16.4488 10.5628 16.691 10.8089C16.9371 11.0511 16.9371 11.4496 16.691 11.6917L10.7535 17.6292C8.43708 19.9456 4.65193 19.9456 2.37029 17.6292C0.0549366 15.3128 0.0549756 11.5277 2.37029 9.24643L9.87068 1.74604C11.4957 0.121113 14.1285 0.121113 15.7535 1.74604C17.3785 3.37064 17.3785 6.00424 15.7535 7.62924L8.5738 14.8089C7.47224 15.9105 5.65974 15.8089 4.65193 14.5941C3.85388 13.5199 3.93708 12.055 4.87849 11.1136L10.8082 5.18393C11.0504 4.93783 11.4488 4.93783 11.691 5.18393C11.9371 5.42611 11.9371 5.82455 11.691 6.06674L5.7613 11.9964C5.23787 12.4886 5.22615 13.2699 5.62849 13.8128C6.1363 14.4456 7.11677 14.5003 7.69099 13.9261L14.8707 6.74643C16.0074 5.60971 16.0074 3.76635 14.8707 2.62963Z"
        fill="#666666" />
    <path
        d="M14.8707 2.62963C13.734 1.4933 11.8902 1.4933 10.7535 2.62963L3.25388 10.1292C1.42693 11.9574 1.42693 14.9183 3.25388 16.7464C5.08162 18.5746 8.04255 18.5746 9.87068 16.7464L15.8082 10.8089C16.0504 10.5628 16.4488 10.5628 16.691 10.8089C16.9371 11.0511 16.9371 11.4496 16.691 11.6917L10.7535 17.6292C8.43708 19.9456 4.65193 19.9456 2.37029 17.6292C0.0549366 15.3128 0.0549756 11.5277 2.37029 9.24643L9.87068 1.74604C11.4957 0.121113 14.1285 0.121113 15.7535 1.74604C17.3785 3.37064 17.3785 6.00424 15.7535 7.62924L8.5738 14.8089C7.47224 15.9105 5.65974 15.8089 4.65193 14.5941C3.85388 13.5199 3.93708 12.055 4.87849 11.1136L10.8082 5.18393C11.0504 4.93783 11.4488 4.93783 11.691 5.18393C11.9371 5.42611 11.9371 5.82455 11.691 6.06674L5.7613 11.9964C5.23787 12.4886 5.22615 13.2699 5.62849 13.8128C6.1363 14.4456 7.11677 14.5003 7.69099 13.9261L14.8707 6.74643C16.0074 5.60971 16.0074 3.76635 14.8707 2.62963Z"
        fill="black" fill-opacity="0.2" />
</svg>