<svg version="1.1" id="Layer_1" xmlns="http://www.w3.org/2000/svg" xmlns:xlink="http://www.w3.org/1999/xlink" x="0px" y="0px"
	 width="100%" viewBox="0 0 1563 1564" enable-background="new 0 0 1563 1564" xml:space="preserve">
<path fill="#FEE600" opacity="1.000000" stroke="none" 
	d="
M1039.000000,1565.000000 
	C692.666748,1565.000000 346.833527,1565.000000 1.000232,1565.000000 
	C1.000155,1043.666870 1.000155,522.333862 1.000077,1.000582 
	C521.999573,1.000388 1042.999146,1.000388 1563.999023,1.000194 
	C1563.999390,522.332764 1563.999390,1043.665527 1563.999756,1564.999146 
	C1389.166626,1565.000000 1214.333374,1565.000000 1039.000000,1565.000000 
M485.398010,1234.898193 
	C584.233948,1135.827515 683.069885,1036.756958 781.332214,938.261230 
	C916.650696,1072.877808 1051.187256,1206.716553 1185.432617,1340.265625 
	C1237.978638,1287.637085 1290.915649,1234.616943 1345.218262,1180.229126 
	C1210.882690,1046.624634 1076.262573,912.737244 941.571289,778.779114 
	C966.925598,753.407593 991.490540,728.732178 1016.217163,704.219971 
	C1018.833191,701.626587 1019.793640,699.105164 1019.786072,695.511841 
	C1019.682312,646.180725 1019.770081,596.849243 1019.615173,547.518433 
	C1019.601929,543.304565 1020.842163,540.441345 1023.851013,537.571045 
	C1032.651245,529.175659 1041.224121,520.536133 1049.731567,511.841187 
	C1058.071777,503.317169 1066.222412,494.607452 1074.456177,485.979248 
	C1074.980103,486.327820 1075.503906,486.676361 1076.027832,487.024902 
	C1076.027832,488.778198 1076.027954,490.531464 1076.027954,492.284729 
	C1076.027710,532.283081 1076.061035,572.281433 1075.963989,612.279541 
	C1075.956055,615.516907 1076.814697,617.840820 1079.175659,620.127563 
	C1086.235107,626.964966 1093.035034,634.070251 1099.939087,641.068237 
	C1109.994873,651.260864 1120.052979,661.451233 1130.954468,672.498291 
	C1197.450073,605.611633 1263.528320,539.145020 1330.747192,471.530914 
	C1348.677368,489.426178 1365.992798,506.707886 1383.403931,524.085144 
	C1382.955444,518.640015 1382.699341,512.857605 1381.964844,507.136536 
	C1380.101685,492.622192 1378.131592,478.119537 1376.007568,463.641113 
	C1372.731323,441.308868 1365.374390,420.099274 1357.180664,399.236115 
	C1341.870605,360.252960 1320.106445,325.125824 1291.493286,294.502655 
	C1261.251831,262.136749 1227.081177,236.010132 1182.053101,227.445877 
	C1161.749878,223.584229 1141.453369,223.671646 1121.423096,227.445343 
	C1096.681519,232.106613 1074.146484,242.598206 1053.236084,256.772949 
	C1035.375977,268.879852 1021.347046,285.014984 1006.227295,299.991821 
	C965.500183,340.334045 925.003662,380.909027 884.421997,421.398041 
	C869.359985,436.425598 854.315613,451.470947 838.422791,467.347748 
	C854.698669,483.061493 870.715637,498.525299 886.121704,513.399353 
	C850.950195,548.752625 816.465088,583.416016 782.633728,617.422241 
	C748.029358,583.081604 713.327271,548.643921 678.474060,514.056396 
	C694.009155,498.539307 709.546936,483.019592 725.293762,467.290985 
	C724.035583,465.959198 722.938416,464.741882 721.782959,463.582794 
	C662.836243,404.454468 603.635010,345.576813 545.048767,286.093506 
	C519.420105,260.072388 490.702026,240.043701 455.027466,230.399063 
	C434.581329,224.871460 414.087738,223.870026 393.218414,225.921524 
	C368.053955,228.395218 345.281372,237.512238 324.273254,251.138260 
	C280.262360,279.683960 248.224915,319.072357 223.621002,364.733612 
	C201.953033,404.946136 188.578262,447.968048 183.251678,493.390076 
	C182.033676,503.776611 181.380875,514.229431 180.467941,524.651733 
	C180.970596,524.780396 181.473236,524.909058 181.975876,525.037720 
	C199.246231,507.403442 216.516602,489.769226 233.468567,472.460083 
	C301.010590,539.488525 367.421478,605.394409 433.934814,671.401978 
	C434.610626,670.789368 435.500641,670.046387 436.318878,669.231445 
	C452.847198,652.768616 469.432098,636.361206 485.793671,619.734070 
	C487.517700,617.982056 488.790405,614.931213 488.801666,612.476135 
	C488.985413,572.478638 488.931763,532.480042 488.931702,492.481720 
	C488.931702,490.729553 488.931732,488.977356 488.931732,486.206360 
	C491.067444,488.195007 492.393494,489.353485 493.634460,490.596832 
	C509.640717,506.633850 525.575134,522.743286 541.692444,538.667786 
	C544.288269,541.232605 545.284607,543.769165 545.276367,547.387512 
	C545.163635,596.885193 545.159607,646.383301 545.314697,695.880737 
	C545.322510,698.380798 546.345337,701.529602 548.035156,703.269592 
	C561.850403,717.494629 575.871094,731.522644 589.961548,745.477112 
	C600.943420,756.352783 612.114319,767.037598 623.256836,777.861267 
	C488.313416,912.975220 354.204773,1047.253296 219.876205,1181.751587 
	C273.109161,1234.636963 326.274567,1287.455200 379.855225,1340.686035 
	C414.571564,1305.889160 449.735138,1270.644043 485.398010,1234.898193 
z"/>
<path fill="#2B2D33" opacity="1.000000" stroke="none" 
	d="
M485.148376,1235.148682 
	C449.735138,1270.644043 414.571564,1305.889160 379.855225,1340.686035 
	C326.274567,1287.455200 273.109161,1234.636963 219.876205,1181.751587 
	C354.204773,1047.253296 488.313416,912.975220 623.256836,777.861267 
	C612.114319,767.037598 600.943420,756.352783 589.961548,745.477112 
	C575.871094,731.522644 561.850403,717.494629 548.035156,703.269592 
	C546.345337,701.529602 545.322510,698.380798 545.314697,695.880737 
	C545.159607,646.383301 545.163635,596.885193 545.276367,547.387512 
	C545.284607,543.769165 544.288269,541.232605 541.692444,538.667786 
	C525.575134,522.743286 509.640717,506.633850 493.634460,490.596832 
	C492.393494,489.353485 491.067444,488.195007 488.931732,486.206360 
	C488.931732,488.977356 488.931702,490.729553 488.931702,492.481720 
	C488.931763,532.480042 488.985413,572.478638 488.801666,612.476135 
	C488.790405,614.931213 487.517700,617.982056 485.793671,619.734070 
	C469.432098,636.361206 452.847198,652.768616 436.318878,669.231445 
	C435.500641,670.046387 434.610626,670.789368 433.934814,671.401978 
	C367.421478,605.394409 301.010590,539.488525 233.468567,472.460083 
	C216.516602,489.769226 199.246231,507.403442 181.975876,525.037720 
	C181.473236,524.909058 180.970596,524.780396 180.467941,524.651733 
	C181.380875,514.229431 182.033676,503.776611 183.251678,493.390076 
	C188.578262,447.968048 201.953033,404.946136 223.621002,364.733612 
	C248.224915,319.072357 280.262360,279.683960 324.273254,251.138260 
	C345.281372,237.512238 368.053955,228.395218 393.218414,225.921524 
	C414.087738,223.870026 434.581329,224.871460 455.027466,230.399063 
	C490.702026,240.043701 519.420105,260.072388 545.048767,286.093506 
	C603.635010,345.576813 662.836243,404.454468 721.782959,463.582794 
	C722.938416,464.741882 724.035583,465.959198 725.293762,467.290985 
	C709.546936,483.019592 694.009155,498.539307 678.474060,514.056396 
	C713.327271,548.643921 748.029358,583.081604 782.633728,617.422241 
	C816.465088,583.416016 850.950195,548.752625 886.121704,513.399353 
	C870.715637,498.525299 854.698669,483.061493 838.422791,467.347748 
	C854.315613,451.470947 869.359985,436.425598 884.421997,421.398041 
	C925.003662,380.909027 965.500183,340.334045 1006.227295,299.991821 
	C1021.347046,285.014984 1035.375977,268.879852 1053.236084,256.772949 
	C1074.146484,242.598206 1096.681519,232.106613 1121.423096,227.445343 
	C1141.453369,223.671646 1161.749878,223.584229 1182.053101,227.445877 
	C1227.081177,236.010132 1261.251831,262.136749 1291.493286,294.502655 
	C1320.106445,325.125824 1341.870605,360.252960 1357.180664,399.236115 
	C1365.374390,420.099274 1372.731323,441.308868 1376.007568,463.641113 
	C1378.131592,478.119537 1380.101685,492.622192 1381.964844,507.136536 
	C1382.699341,512.857605 1382.955444,518.640015 1383.403931,524.085144 
	C1365.992798,506.707886 1348.677368,489.426178 1330.747192,471.530914 
	C1263.528320,539.145020 1197.450073,605.611633 1130.954468,672.498291 
	C1120.052979,661.451233 1109.994873,651.260864 1099.939087,641.068237 
	C1093.035034,634.070251 1086.235107,626.964966 1079.175659,620.127563 
	C1076.814697,617.840820 1075.956055,615.516907 1075.963989,612.279541 
	C1076.061035,572.281433 1076.027710,532.283081 1076.027954,492.284729 
	C1076.027954,490.531464 1076.027832,488.778198 1076.027832,487.024902 
	C1075.503906,486.676361 1074.980103,486.327820 1074.456177,485.979248 
	C1066.222412,494.607452 1058.071777,503.317169 1049.731567,511.841187 
	C1041.224121,520.536133 1032.651245,529.175659 1023.851013,537.571045 
	C1020.842163,540.441345 1019.601929,543.304565 1019.615173,547.518433 
	C1019.770081,596.849243 1019.682312,646.180725 1019.786072,695.511841 
	C1019.793640,699.105164 1018.833191,701.626587 1016.217163,704.219971 
	C991.490540,728.732178 966.925598,753.407593 941.571289,778.779114 
	C1076.262573,912.737244 1210.882690,1046.624634 1345.218262,1180.229126 
	C1290.915649,1234.616943 1237.978638,1287.637085 1185.432617,1340.265625 
	C1051.187256,1206.716553 916.650696,1072.877808 781.332214,938.261230 
	C683.069885,1036.756958 584.233948,1135.827515 485.148376,1235.148682 
z"/>
</svg>