<?xml version="1.0" encoding="UTF-8"?>
<!DOCTYPE svg PUBLIC "-//W3C//DTD SVG 1.1//EN" "http://www.w3.org/Graphics/SVG/1.1/DTD/svg11.dtd">
<svg xmlns="http://www.w3.org/2000/svg" version="1.1" width="48px" height="32px" style="shape-rendering:geometricPrecision; text-rendering:geometricPrecision; image-rendering:optimizeQuality; fill-rule:evenodd; clip-rule:evenodd" xmlns:xlink="http://www.w3.org/1999/xlink">
<g><path style="opacity:0.989" fill="#fefefe" d="M -0.5,-0.5 C 15.5,-0.5 31.5,-0.5 47.5,-0.5C 47.5,3.16667 47.5,6.83333 47.5,10.5C 31.5,10.5 15.5,10.5 -0.5,10.5C -0.5,6.83333 -0.5,3.16667 -0.5,-0.5 Z"/></g>
<g><path style="opacity:1" fill="#0b3aa5" d="M -0.5,10.5 C 15.5,10.5 31.5,10.5 47.5,10.5C 47.5,14.1667 47.5,17.8333 47.5,21.5C 31.5,21.5 15.5,21.5 -0.5,21.5C -0.5,17.8333 -0.5,14.1667 -0.5,10.5 Z"/></g>
<g><path style="opacity:1" fill="#d42b1d" d="M -0.5,21.5 C 15.5,21.5 31.5,21.5 47.5,21.5C 47.5,24.8333 47.5,28.1667 47.5,31.5C 31.5,31.5 15.5,31.5 -0.5,31.5C -0.5,28.1667 -0.5,24.8333 -0.5,21.5 Z"/></g>
</svg>
