<svg xmlns="http://www.w3.org/2000/svg" width="14" height="15" viewBox="0 0 14 15" fill="none">
    <g clip-path="url(#clip0_2874_229416)">
        <path
            d="M11.1318 1.62422C10.6865 1.18154 10.1006 0.9375 9.47363 0.9375H3.21875C1.92617 0.9375 0.875 1.98896 0.875 3.28125V11.7188C0.875 13.0107 1.92617 14.0625 3.21875 14.0625H11.6562C12.9491 14.0625 14 13.011 14 11.7188V5.46387C14 4.8375 13.7565 4.24893 13.3133 3.80625L11.1318 1.62422ZM3.6875 1.875H9.3125V4.6875H3.6875V1.875ZM13.0625 11.7188C13.0625 12.4942 12.4317 13.125 11.6562 13.125H3.21875C2.44326 13.125 1.8125 12.4951 1.8125 11.7188V3.28125C1.8125 2.671 2.20566 2.15537 2.75 1.96143V4.6875C2.75 5.20518 3.16982 5.625 3.6875 5.625H9.3125C9.83018 5.625 10.25 5.20518 10.25 4.6875V2.10996C10.328 2.16146 10.4013 2.22044 10.4679 2.287L12.6505 4.46962C12.916 4.73438 13.0625 5.08887 13.0625 5.46387V11.7188ZM7.4375 7.03125C6.14463 7.03125 5.09375 8.08272 5.09375 9.375C5.09375 10.6673 6.14492 11.7188 7.4375 11.7188C8.73008 11.7188 9.78125 10.6673 9.78125 9.375C9.78125 8.08272 8.72949 7.03125 7.4375 7.03125ZM7.4375 10.7812C6.66201 10.7812 6.03125 10.1505 6.03125 9.375C6.03125 8.59951 6.66113 7.96875 7.4375 7.96875C8.21387 7.96875 8.84375 8.59951 8.84375 9.375C8.84375 10.1505 8.21387 10.7812 7.4375 10.7812Z"
            fill="black" />
    </g>
    <defs>
        <clipPath id="clip0_2874_229416">
            <rect width="13.125" height="15" fill="white" transform="translate(0.875)" />
        </clipPath>
    </defs>
</svg>