<svg xmlns="http://www.w3.org/2000/svg" width="21" height="20" viewBox="0 0 21 20" fill="none">
    <g clip-path="url(#clip0_2866_216186)">
        <path
            d="M20.1914 18.3984L14.957 13.1641C16.0899 11.7773 16.7149 10.0312 16.7149 8.125C16.7149 3.63672 13.077 0 8.58985 0C4.10274 0 0.5 3.63789 0.5 8.125C0.5 12.6121 4.13751 16.25 8.58985 16.25C10.4957 16.25 12.2441 15.5895 13.6289 14.4906L18.8633 19.725C19.082 19.9102 19.3242 20 19.5625 20C19.8008 20 20.0422 19.9084 20.2254 19.7254C20.5899 19.3594 20.5899 18.7656 20.1914 18.3984ZM2.37501 8.125C2.37501 4.67891 5.17891 1.875 8.62501 1.875C12.0711 1.875 14.875 4.67891 14.875 8.125C14.875 11.5711 12.0711 14.375 8.62501 14.375C5.17891 14.375 2.37501 11.5703 2.37501 8.125Z"
            fill="#999999" />
    </g>
    <defs>
        <clipPath id="clip0_2866_216186">
            <rect width="20" height="20" fill="white" transform="translate(0.5)" />
        </clipPath>
    </defs>
</svg>