<svg xmlns="http://www.w3.org/2000/svg" width="25" height="25" viewBox="0 0 25 25" fill="none">
    <path
        d="M12.5 0C5.5957 0 0 5.5957 0 12.5C0 19.4043 5.5957 25 12.5 25C19.4043 25 25 19.4043 25 12.5C25 5.5957 19.4043 0 12.5 0ZM18.6816 12.4316C18.0713 13.042 17.0825 13.042 16.4722 12.4316L14.0625 10.0244V18.75C14.0625 19.6138 13.3628 20.3125 12.5 20.3125C11.6372 20.3125 10.9375 19.6138 10.9375 18.75V10.0244L8.52539 12.4316C7.91504 13.042 6.92627 13.042 6.31592 12.4316C5.70557 11.8213 5.70557 10.8325 6.31592 10.2222L11.3501 5.18799C11.7822 4.75586 12.2607 4.6875 12.5 4.6875C12.7383 4.6875 13.2153 4.75542 13.606 5.14639L18.6401 10.1806C19.292 10.835 19.292 11.8213 18.6816 12.4316Z"
        fill="#1565C0" />
</svg>