<svg xmlns="http://www.w3.org/2000/svg" width="11" height="12" viewBox="0 0 11 12" fill="none">
    <g clip-path="url(#clip0_2919_261585)">
        <path
            d="M10.6155 3.2352L8.57411 0.983086C8.29004 0.672305 7.75239 0.672305 7.46809 0.983086L5.42668 3.2352C5.10535 3.54223 5.1241 4.01801 5.43114 4.29691C5.73629 4.57699 6.2109 4.55566 6.49098 4.25067L7.24989 3.42035V10.4985C7.24989 10.9157 7.58504 11.2508 7.99989 11.2508C8.41473 11.2508 8.74989 10.915 8.74989 10.5001V3.42035L9.50926 4.2498C9.77692 4.5416 10.2506 4.58801 10.5691 4.29605C10.8757 4.01801 10.8944 3.54223 10.6155 3.2352ZM5.00926 7.7516L4.24989 8.58129V1.50152C4.24989 1.08668 3.91473 0.75082 3.49989 0.75082C3.08504 0.75082 2.74989 1.08668 2.74989 1.50152V8.57965L1.99051 7.7516C1.72285 7.45981 1.24918 7.4134 0.930667 7.70545C0.625277 7.98553 0.604886 8.46061 0.884519 8.76647L2.92593 11.0186C3.20999 11.3294 3.74764 11.3294 4.03194 11.0186L6.07335 8.76647C6.35319 8.46061 6.33257 7.98577 6.0272 7.70545C5.76395 7.42582 5.29051 7.44691 5.00926 7.7516Z"
            fill="#1565C0" />
    </g>
    <defs>
        <clipPath id="clip0_2919_261585">
            <rect width="10.5" height="12" fill="white" transform="translate(0.5)" />
        </clipPath>
    </defs>
</svg>