<svg xmlns="http://www.w3.org/2000/svg" width="18" height="18" viewBox="0 0 18 18" fill="none">
  <g clip-path="url(#clip0_2888_252146)">
    <path d="M11.5875 6.1875H17.1563C17.5184 6.1875 17.8383 6.41602 17.9543 6.75703C18.0703 7.09805 17.9578 7.47422 17.6731 7.6957L13.0746 11.2746L14.8676 16.8996C14.9801 17.2512 14.85 17.6379 14.5441 17.8488C14.2418 18.0598 13.8375 18.0492 13.5457 17.8207L9.00001 14.2875L4.4543 17.8207C4.16251 18.0492 3.75821 18.0598 3.45481 17.8488C3.15176 17.6379 3.02133 17.2512 3.13348 16.8996L4.9254 11.2746L0.325799 7.6957C0.0412792 7.47422 -0.071256 7.09805 0.0457089 6.75703C0.162709 6.41602 0.483404 6.1875 0.843756 6.1875H6.41602L8.19493 0.587812C8.30743 0.237797 8.63438 0 9.00001 0C9.36915 0 9.69258 0.237797 9.80508 0.587812L11.5875 6.1875Z" fill="#999999"/>
  </g>
  <defs>
    <clipPath id="clip0_2888_252146">
      <rect width="18" height="18" fill="white"/>
    </clipPath>
  </defs>
</svg>