<svg width="22" height="22" viewBox="0 0 22 22" fill="none" xmlns="http://www.w3.org/2000/svg">
    <path
        d="M9.8957 0.806523C10.0504 0.326219 10.4973 0 11 0C11.5027 0 11.9496 0.326219 12.1043 0.806523L14.2527 7.5625H20.857C21.4887 7.5625 22 8.07383 22 8.70547C22 9.0707 21.8238 9.41445 21.4887 9.6293L15.9242 13.677L18.107 20.8484C18.2832 21.4242 17.8535 22 17.2563 22C17.0586 22 16.8652 21.9355 16.7105 21.8109L11 17.3723L5.28945 21.8109C5.13477 21.9355 4.90273 22 4.74375 22C4.14477 22 3.7168 21.4242 3.89082 20.8484L6.07578 13.677L0.473516 9.6293C0.176172 9.41445 0 9.0707 0 8.70547C0 8.07383 0.511328 7.5625 1.14254 7.5625H7.74727L9.8957 0.806523ZM11 1.87473L8.90312 8.46055C8.81289 8.74414 8.51211 8.9375 8.25 8.9375H1.86184L7.27891 12.8477C7.51523 13.0195 7.61836 13.3246 7.53242 13.6082L5.65039 19.7914L10.5789 15.9586C10.7895 15.7652 11.1719 15.7652 11.4211 15.9586L16.3496 19.7914L14.4676 13.6082C14.3816 13.3246 14.4848 13.0195 14.7211 12.8477L20.1395 8.9375H13.75C13.4492 8.9375 13.1871 8.74414 13.0969 8.46055L11 1.87473Z"
        fill="#000000" />
</svg>