<svg width="14" height="12" viewBox="0 0 14 12" fill="none" xmlns="http://www.w3.org/2000/svg">
<g clip-path="url(#clip0_1914_147834)">
<path d="M10.9383 8.25001L7.5 4.81173L5.02969 7.2797C4.73672 7.57267 4.26328 7.57267 3.97031 7.2797L0.219656 3.5297C-0.0732188 3.23673 -0.0732188 2.76329 0.219656 2.47032C0.512578 2.17688 0.987422 2.17688 1.28039 2.47032L4.47891 5.68829L6.97031 3.22032C7.26328 2.92735 7.73672 2.92735 8.02969 3.22032L12 7.18829V5.22892C12 4.83517 12.3352 4.47892 12.75 4.47892C13.1648 4.47892 13.5 4.83517 13.5 5.22892V9.00001C13.5 9.41485 13.1648 9.75001 12.75 9.75001H9C8.58516 9.75001 8.25 9.41485 8.25 9.00001C8.25 8.58517 8.58516 8.25001 9 8.25001H10.9383Z" fill="#689F38"/>
</g>
<defs>
<clipPath id="clip0_1914_147834">
<rect width="13.5" height="12" fill="white"/>
</clipPath>
</defs>
</svg>
