<svg width="14" height="8" viewBox="0 0 14 8" fill="none" xmlns="http://www.w3.org/2000/svg">
<path d="M9 1.75C8.58516 1.75 8.25 1.41484 8.25 1C8.25 0.585156 8.58516 0.25 9 0.25H12.75C13.1648 0.25 13.5 0.585156 13.5 1V4.75C13.5 5.16484 13.1648 5.5 12.75 5.5C12.3352 5.5 12 5.16484 12 4.75V2.81172L8.02969 6.77969C7.73672 7.07266 7.26328 7.07266 6.97031 6.77969L4.47891 4.31172L1.28039 7.52969C0.987422 7.82266 0.512578 7.82266 0.219656 7.52969C-0.0732188 7.23672 -0.0732188 6.76328 0.219656 6.47031L3.97031 2.72031C4.26328 2.42734 4.73672 2.42734 5.02969 2.72031L7.5 5.18828L10.9383 1.72891L9 1.75Z" fill="#C62828"/>
</svg>
