<svg width="14" height="8" viewBox="0 0 14 8" fill="none" xmlns="http://www.w3.org/2000/svg">
<path d="M10.9383 6.25001L7.5 2.81173L5.02969 5.2797C4.73672 5.57267 4.26328 5.57267 3.97031 5.2797L0.219656 1.5297C-0.0732188 1.23673 -0.0732188 0.763291 0.219656 0.470322C0.512578 0.176885 0.987422 0.176885 1.28039 0.470322L4.47891 3.68829L6.97031 1.22032C7.26328 0.927353 7.73672 0.927353 8.02969 1.22032L12 5.18829V3.22892C12 2.83517 12.3352 2.47892 12.75 2.47892C13.1648 2.47892 13.5 2.83517 13.5 3.22892V7.00001C13.5 7.41485 13.1648 7.75001 12.75 7.75001H9C8.58516 7.75001 8.25 7.41485 8.25 7.00001C8.25 6.58517 8.58516 6.25001 9 6.25001H10.9383Z" fill="#1A1A1A"/>
</svg>
