<svg width="14" height="14" viewBox="0 0 14 14" fill="none" xmlns="http://www.w3.org/2000/svg">
    <g clip-path="url(#clip0_1701_151635)">
        <path
            d="M4.78516 5.66016C5.04219 5.40586 5.45781 5.40586 5.69023 5.66016L6.97539 6.94805L8.28516 5.66016C8.54219 5.40586 8.95781 5.40586 9.19023 5.66016C9.46914 5.91719 9.46914 6.33281 9.19023 6.56523L7.92695 7.85039L9.19023 9.16016C9.46914 9.41719 9.46914 9.83281 9.19023 10.0652C8.95781 10.3441 8.54219 10.3441 8.28516 10.0652L6.97539 8.80195L5.69023 10.0652C5.45781 10.3441 5.04219 10.3441 4.78516 10.0652C4.53086 9.83281 4.53086 9.41719 4.78516 9.16016L6.07305 7.85039L4.78516 6.56523C4.53086 6.33281 4.53086 5.91719 4.78516 5.66016ZM9.55664 0.681953L10.5602 2.1875H12.4688C12.8324 2.1875 13.125 2.48145 13.125 2.84375C13.125 3.20742 12.8324 3.5 12.4688 3.5H12.1516L11.4953 12.3785C11.427 13.2918 10.6668 14 9.75078 14H4.24922C3.33375 14 2.57277 13.2918 2.50496 12.3785L1.84734 3.5H1.53125C1.16895 3.5 0.875 3.20742 0.875 2.84375C0.875 2.48145 1.16895 2.1875 1.53125 2.1875H3.44039L4.44336 0.681953C4.72773 0.255855 5.20625 0 5.71758 0H8.28242C8.79375 0 9.27227 0.255883 9.55664 0.681953ZM5.01758 2.1875H8.98242L8.46289 1.40984C8.42188 1.34914 8.35352 1.3125 8.28242 1.3125H5.71758C5.64648 1.3125 5.55352 1.34914 5.53711 1.40984L5.01758 2.1875ZM3.81445 12.2828C3.83086 12.5098 4.02227 12.6875 4.24922 12.6875H9.75078C9.97773 12.6875 10.1691 12.5098 10.1855 12.2828L10.8363 3.5H3.1634L3.81445 12.2828Z"
            fill="#f57b0044" />
    </g>
    <defs>
        <clipPath id="clip0_1701_151635">
            <rect width="14" height="14" fill="white" />
        </clipPath>
    </defs>
</svg>
    