<svg width="10" height="10" viewBox="0 0 10 10" fill="none" xmlns="http://www.w3.org/2000/svg">
    <g clip-path="url(#clip0_3169_58430)">
        <path
            d="M5 5.625C6.55332 5.625 7.8125 4.36582 7.8125 2.8125C7.8125 1.25918 6.55332 0 5 0C3.44688 0 2.1875 1.25918 2.1875 2.8125C2.1875 4.36582 3.44727 5.625 5 5.625ZM6.85742 6.25H3.125C1.39922 6.25 0 7.64902 0 9.375C0 9.72012 0.279883 10 0.607422 10H9.375C9.72012 10 9.98242 9.72012 9.98242 9.375C10 7.64844 8.60156 6.25 6.85742 6.25Z"
            fill="#666666" />
        <path
            d="M5 5.625C6.55332 5.625 7.8125 4.36582 7.8125 2.8125C7.8125 1.25918 6.55332 0 5 0C3.44688 0 2.1875 1.25918 2.1875 2.8125C2.1875 4.36582 3.44727 5.625 5 5.625ZM6.85742 6.25H3.125C1.39922 6.25 0 7.64902 0 9.375C0 9.72012 0.279883 10 0.607422 10H9.375C9.72012 10 9.98242 9.72012 9.98242 9.375C10 7.64844 8.60156 6.25 6.85742 6.25Z"
            fill="black" fill-opacity="0.2" />
    </g>
    <defs>
        <clipPath id="clip0_3169_58430">
            <rect width="10" height="10" fill="white" />
        </clipPath>
    </defs>
</svg>
    