<svg width="10" height="16" viewBox="0 0 10 16" fill="none" xmlns="http://www.w3.org/2000/svg">
<g clip-path="url(#clip0_2760_178717)">
<path d="M9.85301 12.8533C9.6576 13.0487 9.34145 13.0487 9.14582 12.8533L4.99988 8.70638L0.85301 12.8533C0.657603 13.0487 0.341447 13.0487 0.145822 12.8533C-0.049584 12.6578 -0.049584 12.3417 0.145822 12.1461L4.29363 8.00013L0.146447 3.85325C-0.048959 3.65785 -0.048959 3.34169 0.146447 3.14607C0.341853 2.95066 0.65801 2.95066 0.853635 3.14607L4.99988 7.29388L9.14676 3.147C9.34216 2.9516 9.65832 2.9516 9.85395 3.147C10.0494 3.34241 10.0494 3.65857 9.85395 3.85419L5.70613 8.00013L9.85301 12.147C10.0499 12.3408 10.0499 12.6595 9.85301 12.8533Z" fill="black"/>
</g>
<defs>
<clipPath id="clip0_2760_178717">
<rect width="10" height="16" fill="white"/>
</clipPath>
</defs>
</svg>
